<?xml version="1.0" encoding="UTF-8"?>
<svg xmlns="http://www.w3.org/2000/svg" xmlns:xlink="http://www.w3.org/1999/xlink" width="13px" height="13px" viewBox="0 0 13 13" version="1.1">
<g id="surface1">
<path style=" stroke:none;fill-rule:evenodd;fill:rgb(60.392157%,60.392157%,60.392157%);fill-opacity:1;" d="M 11.472656 1.015625 L 10.863281 1.015625 L 10.863281 0 L 9.847656 0 L 9.847656 1.015625 L 3.152344 1.015625 L 3.152344 0 L 2.128906 0 L 2.128906 1.015625 L 1.519531 1.015625 C 0.679688 1.015625 0 1.695312 0 2.535156 L 0 11.472656 C 0 12.3125 0.679688 12.996094 1.519531 13 L 11.472656 13 C 11.878906 13 12.265625 12.839844 12.554688 12.554688 C 12.839844 12.265625 13 11.878906 13 11.472656 L 13 2.535156 C 12.996094 1.695312 12.3125 1.015625 11.472656 1.015625 Z M 1.519531 2.03125 L 2.128906 2.03125 L 2.128906 3.046875 L 3.152344 3.046875 L 3.152344 2.03125 L 9.847656 2.03125 L 9.847656 3.046875 L 10.863281 3.046875 L 10.863281 2.03125 L 11.472656 2.03125 C 11.753906 2.027344 11.980469 2.253906 11.984375 2.535156 L 11.984375 3.753906 L 1.015625 3.753906 L 1.015625 2.535156 C 1.015625 2.257812 1.242188 2.03125 1.519531 2.03125 Z M 11.472656 11.984375 L 1.519531 11.984375 C 1.238281 11.980469 1.011719 11.753906 1.015625 11.472656 L 1.015625 4.769531 L 11.984375 4.769531 L 11.984375 11.472656 C 11.984375 11.609375 11.929688 11.738281 11.835938 11.835938 C 11.738281 11.929688 11.609375 11.984375 11.472656 11.984375 Z M 1.925781 5.84375 L 2.941406 5.84375 L 2.941406 6.859375 L 1.925781 6.859375 Z M 3.957031 5.84375 L 4.972656 5.84375 L 4.972656 6.859375 L 3.957031 6.859375 Z M 5.988281 5.84375 L 7.003906 5.84375 L 7.003906 6.859375 L 5.988281 6.859375 Z M 8.019531 5.84375 L 9.035156 5.84375 L 9.035156 6.859375 L 8.019531 6.859375 Z M 10.050781 5.84375 L 11.066406 5.84375 L 11.066406 6.859375 L 10.050781 6.859375 Z M 1.925781 7.875 L 2.941406 7.875 L 2.941406 8.890625 L 1.925781 8.890625 Z M 3.957031 7.875 L 4.972656 7.875 L 4.972656 8.890625 L 3.957031 8.890625 Z M 5.988281 7.875 L 7.003906 7.875 L 7.003906 8.890625 L 5.988281 8.890625 Z M 8.019531 7.875 L 9.035156 7.875 L 9.035156 8.890625 L 8.019531 8.890625 Z M 1.925781 9.90625 L 2.941406 9.90625 L 2.941406 10.921875 L 1.925781 10.921875 Z M 3.957031 9.90625 L 4.972656 9.90625 L 4.972656 10.921875 L 3.957031 10.921875 Z M 5.988281 9.90625 L 7.003906 9.90625 L 7.003906 10.921875 L 5.988281 10.921875 Z M 8.019531 9.90625 L 9.035156 9.90625 L 9.035156 10.921875 L 8.019531 10.921875 Z M 10.050781 7.875 L 11.066406 7.875 L 11.066406 8.890625 L 10.050781 8.890625 Z M 10.050781 7.875 "/>
</g>
</svg>
